<?xml version="1.0" standalone="no"?>
<!DOCTYPE svg PUBLIC "-//W3C//DTD SVG 20010904//EN"
 "http://www.w3.org/TR/2001/REC-SVG-20010904/DTD/svg10.dtd">
<svg version="1.0" xmlns="http://www.w3.org/2000/svg"
 width="1378.000000pt" height="1378.000000pt" viewBox="0 0 1378.000000 1378.000000"
 preserveAspectRatio="xMidYMid meet">
<metadata>
Created by potrace 1.14, written by Peter Selinger 2001-2017
</metadata>
<g transform="translate(0.000000,1378.000000) scale(0.100000,-0.100000)"
fill="#000000" stroke="none">
<path d="M0 6890 l0 -6890 6890 0 6890 0 0 6890 0 6890 -6890 0 -6890 0 0
-6890z m3980 1160 l0 -1780 369 0 368 0 7 77 c31 339 190 718 427 1013 260
325 662 576 1102 689 671 172 1401 63 1936 -289 465 -306 793 -820 861 -1351
7 -52 15 -102 19 -111 4 -13 336 484 1171 1757 l1165 1775 663 0 662 0 0
-1780 0 -1780 370 0 370 0 0 -510 0 -510 -370 0 -370 0 0 -575 0 -575 -580 0
-580 0 0 575 0 575 -1250 0 -1250 0 -1 283 -1 282 -18 -105 c-36 -212 -85
-368 -170 -545 -190 -392 -474 -686 -860 -893 -744 -397 -1750 -352 -2441 109
-282 188 -505 442 -660 750 -94 188 -143 335 -180 544 l-17 100 -1 -262 -1
-263 -370 0 -370 0 0 -575 0 -575 -585 0 -585 0 0 575 0 575 -1250 0 -1250 0
0 508 0 507 1172 1783 1171 1782 663 0 664 0 0 -1780z"/>
<path d="M2210 7329 c-322 -501 -606 -944 -632 -985 l-48 -74 640 0 640 0 0
985 c0 542 -3 985 -7 985 -5 -1 -271 -411 -593 -911z"/>
<path d="M11517 8188 c-19 -29 -302 -470 -630 -980 -329 -510 -597 -930 -597
-933 0 -3 288 -5 640 -5 l640 0 0 985 c0 629 -4 985 -10 985 -5 0 -25 -24 -43
-52z"/>
<path d="M6715 7050 c-216 -34 -370 -106 -503 -234 -167 -159 -258 -363 -284
-633 -46 -481 168 -886 548 -1038 123 -49 240 -68 419 -68 235 0 407 44 554
141 283 188 425 503 408 907 -9 210 -55 372 -148 524 -120 195 -310 328 -545
382 -103 23 -353 34 -449 19z"/>
</g>
</svg>
